<?xml version="1.0" encoding="UTF-8"?>
<svg width="13px" height="24px" viewBox="0 0 13 24" version="1.1" xmlns="http://www.w3.org/2000/svg" xmlns:xlink="http://www.w3.org/1999/xlink">
    <!-- Generator: sketchtool 48.2 (47327) - http://www.bohemiancoding.com/sketch -->
    <title>7B6047B9-C079-49BF-A3B9-2A2887BF9806</title>
    <desc>Created with sketchtool.</desc>
    <defs></defs>
    <g id="Landing-page_1440" stroke="none" stroke-width="1" fill="none" fill-rule="evenodd" transform="translate(-230.000000, -1074.000000)">
        <path d="M242.77666,1085.44652 L232.368209,1074.24045 C232.219316,1074.08015 232.04829,1074 231.853119,1074 C231.661972,1074 231.490946,1074.08015 231.34004,1074.24045 L230.22334,1075.44273 C230.076459,1075.60303 230,1075.78716 230,1075.99513 C230,1076.20309 230.076459,1076.38722 230.22334,1076.54969 L239.002012,1085.99892 L230.22334,1095.45248 C230.076459,1095.61278 230,1095.79691 230,1096.00487 C230,1096.215 230.076459,1096.39913 230.22334,1096.55944 L231.34004,1097.76171 C231.490946,1097.92201 231.661972,1098 231.853119,1098 C232.04829,1098 232.219316,1097.91985 232.368209,1097.76171 L242.77666,1086.55348 C242.925553,1086.39318 243,1086.20904 243,1085.99892 C243,1085.79096 242.925553,1085.60682 242.77666,1085.44652" id="Fill-1" fill="#F38181" transform="translate(236.500000, 1086.000000) scale(-1, 1) translate(-236.500000, -1086.000000) "></path>
    </g>
</svg>