<svg xmlns="http://www.w3.org/2000/svg" width="9" height="17" viewBox="0 0 9 17">
    <path fill="#FFF" fill-rule="nonzero" d="M8.506.004L6.389 0C4.011 0 2.474 1.627 2.474 4.146v1.911H.346a.338.338 0 0 0-.333.344v2.77c0 .19.15.343.333.343h2.128v6.989c0 .19.15.343.333.343h2.777a.338.338 0 0 0 .333-.343V9.514h2.488a.338.338 0 0 0 .333-.343V6.4a.35.35 0 0 0-.097-.243.328.328 0 0 0-.235-.1h-2.49V4.436c0-.779.18-1.174 1.163-1.174h1.426a.338.338 0 0 0 .333-.344V.347a.338.338 0 0 0-.332-.343z"/>
</svg>
