<svg xmlns="http://www.w3.org/2000/svg" width="120" height="44" viewBox="0 0 120 44">
    <g fill="none" fill-rule="evenodd">
        <text fill="#FFF" font-family="PTSans-Regular, PT Sans" font-size="12">
            <tspan x="1" y="41">Powered by Hashworks</tspan>
        </text>
        <g fill-rule="nonzero">
            <path fill="#FFF" d="M27.398 22h-6.712c-1.456 0-2.602-.408-3.435-1.224-.835-.815-1.251-1.955-1.251-3.42v-6.713c0-1.464.416-2.604 1.25-3.42C18.085 6.408 19.23 6 20.687 6h2.66c1.456 0 2.596.408 3.42 1.223C27.587 8.04 28 9.18 28 10.643v3.984c0 .314-.148.471-.443.471h-8.96c-.212 0-.317.094-.317.282v1.914c0 1.82.886 2.73 2.66 2.73h6.459c.295 0 .443.146.443.439v1.13c0 .271-.148.407-.444.407zm-8.802-8.565h6.84c.21 0 .316-.104.316-.313v-2.416c0-1.799-.886-2.698-2.66-2.698H20.94c-1.773 0-2.66.9-2.66 2.698v2.416c0 .209.106.313.317.313zM33.868 22h-1.425c-.295 0-.443-.146-.443-.44V6.44c0-.292.148-.439.443-.439h1.425c.295 0 .443.146.443.439v1.224h.127C34.965 6.554 36.042 6 37.668 6h1.773c1.435 0 2.553.408 3.356 1.223C43.599 8.04 44 9.18 44 10.643v10.918c0 .293-.148.439-.443.439h-1.425c-.296 0-.443-.146-.443-.44V10.738c0-1.82-.887-2.73-2.66-2.73h-1.773c-.95 0-1.678.252-2.185.754-.506.502-.76 1.213-.76 2.133v10.667c0 .293-.148.439-.443.439zM48 3.385V.439c0-.293.178-.439.534-.439h1.89c.384 0 .576.146.576.439v2.946c0 .292-.192.438-.575.438h-1.89c-.357 0-.535-.146-.535-.438zm0 18.176V6.456c0-.293.178-.439.534-.439h1.89c.384 0 .576.146.576.439V21.56c0 .293-.192.439-.575.439h-1.85c-.384 0-.575-.146-.575-.439zM59.332 21.415H57.56c-1.435 0-2.554-.415-3.356-1.245-.802-.83-1.203-1.99-1.203-3.479v-5.968c0-1.489.417-2.649 1.25-3.478C55.085 6.415 56.23 6 57.687 6h6.87c.296 0 .444.149.444.447v15.83c0 1.468-.417 2.622-1.25 3.462-.835.84-1.98 1.261-3.436 1.261h-5.826c-.317 0-.475-.149-.475-.447v-1.18c0-.299.158-.447.475-.447h5.54c1.774 0 2.66-.915 2.66-2.745v-2.458h-.126c-.55 1.128-1.626 1.692-3.23 1.692zm3.357-4.979V8.33c0-.192-.106-.288-.317-.288h-4.4c-1.774 0-2.66.926-2.66 2.777v5.777c0 1.85.886 2.776 2.66 2.776h1.772c.95 0 1.678-.255 2.185-.766.506-.51.76-1.233.76-2.17zM70.832 22h-1.397c-.29 0-.435-.146-.435-.44V6.44c0-.292.145-.439.435-.439h1.397c.29 0 .435.146.435.439v1.224h.124C71.971 6.554 73.068 6 74.683 6h1.15c1.821 0 3.084.711 3.788 2.133.331-.69.854-1.218 1.568-1.584A4.878 4.878 0 0 1 83.441 6h1.087c1.408 0 2.505.408 3.292 1.223.787.816 1.18 1.956 1.18 3.42v10.918c0 .293-.145.439-.435.439h-1.397c-.29 0-.435-.146-.435-.44V10.738c0-1.82-.87-2.73-2.609-2.73H83.1c-.932 0-1.652.267-2.16.8-.507.534-.76 1.261-.76 2.181v10.573c0 .293-.145.439-.435.439h-1.397c-.29 0-.435-.146-.435-.44V10.738c0-1.82-.87-2.73-2.609-2.73h-1.149c-.931 0-1.646.252-2.143.754-.496.502-.745 1.213-.745 2.133v10.667c0 .293-.145.439-.435.439zM99.332 22h-1.646c-1.456 0-2.602-.408-3.435-1.224-.834-.815-1.251-1.955-1.251-3.42v-6.713c0-1.464.417-2.604 1.25-3.42C95.085 6.408 96.23 6 97.687 6h6.87c.296 0 .444.146.444.439v15.122c0 .293-.148.439-.444.439h-1.424c-.296 0-.443-.146-.443-.44v-1.223h-.127c-.528 1.11-1.604 1.663-3.23 1.663zm3.357-4.894V8.29c0-.188-.106-.282-.317-.282h-4.433c-1.752 0-2.628.91-2.628 2.73v6.525c0 1.82.876 2.73 2.628 2.73h1.805c.95 0 1.678-.252 2.185-.754.506-.502.76-1.212.76-2.133z"/>
            <path fill="#F38181" d="M8.101 6.606h-5.59v-.007A.607.607 0 0 0 1.895 6H.615A.607.607 0 0 0 0 6.599v1.246c0 .331.275.599.615.599h1.28c.34 0 .615-.268.615-.599v-.007h5.591c.35 0 .633.277.633.616v6.092c0 .34-.284.616-.633.616h-3.08v-.007a.607.607 0 0 0-.615-.599h-1.28a.607.607 0 0 0-.616.599V16.4c0 .331.276.599.615.599h1.28c.34 0 .616-.268.616-.599v-.007H8.1c1.047 0 1.899-.83 1.899-1.848V8.454c0-1.019-.852-1.848-1.899-1.848z"/>
            <path fill="#F38181" d="M9.385 21.329h-1.28c-.34 0-.615.292-.615.654v.008H1.899c-.35 0-.633-.302-.633-.674v-8.634c0-.372.284-.674.633-.674h3.08v.008c0 .361.275.654.615.654h1.28c.34 0 .616-.293.616-.654v-1.363c0-.361-.276-.654-.615-.654H5.594c-.34 0-.615.293-.615.654v.008H1.9C.852 10.662 0 11.57 0 12.682v8.635c0 1.114.852 2.02 1.899 2.02h5.59v.009c0 .361.276.654.615.654h1.281c.34 0 .615-.293.615-.654v-1.363c0-.362-.275-.654-.615-.654z"/>
        </g>
    </g>
</svg>
