<svg xmlns="http://www.w3.org/2000/svg" xmlns:xlink="http://www.w3.org/1999/xlink" width="60" height="72" viewBox="0 0 60 72">
    <defs>
        <linearGradient id="a" x1="50%" x2="50%" y1="99.739%" y2="0%">
            <stop offset="0%" stop-color="#FDD4B6" stop-opacity=".591"/>
            <stop offset="100%" stop-color="#FFBABA"/>
        </linearGradient>
        <path id="b" d="M.615.566h11.31v18.34H.615z"/>
    </defs>
    <g fill="none" fill-rule="evenodd">
        <path fill="url(#a)" d="M18 0h24v72H18z"/>
        <path fill="#000" d="M35.514 23.822l-1.224-.316a.585.585 0 0 0-.463.046.611.611 0 0 0-.306.363l-7.36 23.997a.525.525 0 0 0 .05.456.637.637 0 0 0 .383.288l1.224.315c.158.051.312.034.464-.046a.61.61 0 0 0 .306-.362l7.36-23.997a.527.527 0 0 0-.05-.456.63.63 0 0 0-.384-.288M25 28.497a.557.557 0 0 0-.19-.414l-.944-.902a.612.612 0 0 0-.87 0l-8.807 8.404A.557.557 0 0 0 14 36c0 .157.063.295.189.415l8.806 8.405a.616.616 0 0 0 .87 0l.945-.902a.558.558 0 0 0 .19-.414.555.555 0 0 0-.19-.415L17.383 36l7.427-7.088a.555.555 0 0 0 .19-.415"/>
        <g transform="translate(36 26)">
            <mask id="c" fill="#fff">
                <use xlink:href="#b"/>
            </mask>
            <path fill="#000" d="M11.73 9.313L2.674.75a.632.632 0 0 0-.893 0l-.972.919a.57.57 0 0 0-.194.422c0 .16.065.3.194.423l7.638 7.222L.81 16.959a.568.568 0 0 0-.194.423c0 .158.065.3.194.422l.972.919a.635.635 0 0 0 .893 0l9.056-8.565a.563.563 0 0 0 .195-.422c0-.159-.065-.3-.195-.423" mask="url(#c)"/>
        </g>
        <path fill="#393939" d="M0 7h60v60H0V7zm2 2v56h56V9H2z"/>
    </g>
</svg>
