<svg xmlns="http://www.w3.org/2000/svg" xmlns:xlink="http://www.w3.org/1999/xlink" width="37" height="30" viewBox="0 0 37 30">
    <defs>
        <path id="a" d="M0 0h36.056v28.169H0z"/>
    </defs>
    <g fill="none" fill-rule="evenodd" transform="translate(.408 .915)">
        <mask id="b" fill="#fff">
            <use xlink:href="#a"/>
        </mask>
        <path fill="#5E7383" d="M18.028 19.422c.657 0 1.36.028 2.15.087l.882.065-.407-.772a2.95 2.95 0 0 0-2.625-1.565 2.95 2.95 0 0 0-2.625 1.565l-.407.772.883-.065c.79-.059 1.492-.087 2.15-.087zm4.95-14.592c.082 0 .164.015.243.042a.731.731 0 0 1 .421.372.711.711 0 0 1 .03.557l-3.558 10.48.32.204a4.394 4.394 0 0 1 1.97 2.938l.059.339.345.057c3.538.59 6.987 1.844 9.974 3.629l.504.3.213-.54a15.208 15.208 0 0 0 1.022-4.23l.047-.528h-2.546l-.065.002a.736.736 0 0 1-.74-.692.716.716 0 0 1 .19-.526.743.743 0 0 1 .513-.24h2.642l-.04-.523c-.268-3.46-1.63-6.688-3.938-9.332l-.348-.398L28.02 8.92a.749.749 0 0 1-1.136.028.721.721 0 0 1 .064-1.028l2.25-2.212-.404-.341A16.552 16.552 0 0 0 19.3 1.509l-.53-.04v2.496a.744.744 0 0 1-1.273.525.717.717 0 0 1-.21-.518V1.47l-.53.04a16.552 16.552 0 0 0-9.494 3.858l-.405.341L9.087 7.9a.712.712 0 0 1 .27.614.717.717 0 0 1-.253.5.749.749 0 0 1-1.046-.07L5.82 6.74l-.347.398c-2.308 2.644-3.67 5.871-3.938 9.332l-.04.523h2.539c.226.002.41.08.548.22.139.14.213.324.21.518a.737.737 0 0 1-.74.718H1.487l.048.53c.126 1.378.479 2.797 1.048 4.218l.216.536.5-.299c2.986-1.779 6.426-3.03 9.95-3.616l.345-.057.059-.34c.36-2.076 2.242-3.642 4.375-3.642.101 0 .2.005.3.012l.382.026 3.555-10.473a.74.74 0 0 1 .709-.515h.004zm9.04 23.339a.749.749 0 0 1-.426-.133.724.724 0 0 1-.181-1.02 18.7 18.7 0 0 0 .99-1.545l.233-.405-.402-.245c-4.158-2.543-9.203-3.943-14.204-3.943-4.987 0-10.022 1.396-14.177 3.93l-.404.246.234.406c.21.363.417.698.633 1.024l.147.22h23.446c.225.003.41.082.548.221.139.14.213.324.21.518a.737.737 0 0 1-.74.718H4.033a.746.746 0 0 1-.612-.311C1.183 24.699 0 21.197 0 17.722 0 7.95 8.087 0 18.028 0c9.94 0 18.028 7.95 18.028 17.722 0 4.388-1.861 7.93-3.423 10.129a.754.754 0 0 1-.614.318z" mask="url(#b)"/>
    </g>
</svg>
