<svg xmlns="http://www.w3.org/2000/svg" xmlns:xlink="http://www.w3.org/1999/xlink" width="37" height="41" viewBox="0 0 37 41">
    <defs>
        <path id="a" d="M0 .108h35.784v39.914H0z"/>
    </defs>
    <g fill="none" fill-rule="evenodd">
        <g transform="translate(.535 .588)">
            <mask id="b" fill="#fff">
                <use xlink:href="#a"/>
            </mask>
            <path fill="#78A693" d="M16.384 5.526a2.738 2.738 0 0 0-2.727 2.74v3.971h5.45l.005-3.97a2.738 2.738 0 0 0-2.728-2.741zm-.004-1.42c2.284 0 4.141 1.866 4.141 4.16v3.971h2.572v-3.97c0-3.716-3.008-6.74-6.705-6.74s-6.705 3.024-6.705 6.74v3.97h2.557v-3.97c0-2.295 1.857-4.162 4.14-4.162zm3.635 19.788a3.13 3.13 0 0 1 2.474 1.227c.178.23.323.483.43.751l.182.45 3.102-3.063v-8.718a.886.886 0 0 0-.884-.888H7.45a.886.886 0 0 0-.883.888v9.353h13.45zM6.267 40.022a.703.703 0 0 1-.7-.61.709.709 0 0 1 .135-.525l1.212-1.659a3.967 3.967 0 0 1 3.19-1.622h7.693a7.3 7.3 0 0 0 5.227-2.165l10.854-10.916a1.696 1.696 0 0 0 .388-1.78 1.67 1.67 0 0 0-.873-.946l-.052-.024a1.712 1.712 0 0 0-1.95.341l-8.764 8.647-.018.029a3.132 3.132 0 0 1-2.615 1.415H11.11a.71.71 0 0 1 0-1.421h8.886c.954 0 1.729-.78 1.729-1.737 0-.959-.775-1.738-1.73-1.738H6.915c-1.21 0-2.37.447-3.268 1.258l-2.396 2.16a.945.945 0 0 1-.134.122.708.708 0 0 1-.985-.165.713.713 0 0 1 .164-.991l2.42-2.183a6.252 6.252 0 0 1 2.213-1.287l.22-.073v-9.608a2.304 2.304 0 0 1 2.297-2.307h.808v-3.97c0-4.499 3.642-8.159 8.12-8.159 4.475 0 8.118 3.66 8.118 8.159v3.966h.824a2.305 2.305 0 0 1 2.297 2.308v7.32l2.793-2.76a3.099 3.099 0 0 1 2.197-.908c.43 0 .846.086 1.238.257l.148.072c.333.154.632.364.892.625a3.09 3.09 0 0 1 .904 2.196c0 .83-.32 1.61-.905 2.196L24.025 34.45a8.777 8.777 0 0 1-6.197 2.59h-7.715a2.55 2.55 0 0 0-2.073 1.047l-1.21 1.655a.699.699 0 0 1-.563.281z" mask="url(#b)"/>
        </g>
        <path fill="#9A5E7F" d="M16.924 20.477a.71.71 0 0 1-.003-1.42l-.002-.649.026.648c.368.001.685.32.685.711a.71.71 0 0 1-.704.71h-.002z"/>
    </g>
</svg>
