<svg xmlns="http://www.w3.org/2000/svg" width="60" height="72" viewBox="0 0 60 72">
    <defs>
        <linearGradient id="a" x1="50%" x2="50%" y1="99.739%" y2="0%">
            <stop offset="0%" stop-color="#FDD4B6" stop-opacity=".591"/>
            <stop offset="100%" stop-color="#FFBABA"/>
        </linearGradient>
    </defs>
    <g fill="none" fill-rule="evenodd">
        <path fill="url(#a)" d="M18 0h24v72H18z"/>
        <g fill="#000">
            <path d="M22.722 57h4.554l-2.281-3.984L22.722 57zM29 59h-8a.998.998 0 0 1-.864-.498.997.997 0 0 1-.004-.998l3.993-7a1 1 0 0 1 1.737-.001l4.006 7A1.002 1.002 0 0 1 29 59z"/>
            <path d="M20.326 64h9.348l-1.428-5h-6.492l-1.428 5zM31 66H19a1 1 0 0 1-.962-1.275l2-7c.123-.429.516-.725.962-.725h8c.446 0 .84.296.962.725l2 7A1.003 1.003 0 0 1 31 66zM43 38c-8.271 0-15-6.729-15-15S34.729 8 43 8s15 6.729 15 15-6.729 15-15 15m0-32c-9.374 0-17 7.626-17 17 0 9.374 7.626 17 17 17 9.374 0 17-7.626 17-17 0-9.374-7.626-17-17-17"/>
            <path d="M2 64h16.246l1.666-5.833-4.555-6.906c-3.243.502-6.942 1.908-11.875 4.504A2.77 2.77 0 0 0 2 58.222V64zm17 2H1a1 1 0 0 1-1-1v-6.778c0-1.779.978-3.399 2.551-4.227 5.469-2.878 9.531-4.359 13.173-4.804a.998.998 0 0 1 .956.442l5.155 7.816c.16.244.207.545.127.826l-2 7A1.001 1.001 0 0 1 19 66z"/>
            <path d="M16.163 48.85l4.776 7.241 2.427-4.247c-2.445-.469-4.806-1.97-6.776-4.316l-.427 1.322zM21 59c-.336 0-.65-.169-.835-.449l-5.936-9a1.002 1.002 0 0 1-.117-.858l1.167-3.618a1.001 1.001 0 0 1 1.784-.247C19.254 48.115 22.146 50 25 50a1 1 0 0 1 .868 1.496l-4 7a.998.998 0 0 1-.836.503L21 59zM31.754 64H48v-5.778a2.77 2.77 0 0 0-1.482-2.457c-4.933-2.596-8.632-4.002-11.875-4.504l-4.555 6.906L31.754 64zM49 66H31c-.446 0-.84-.296-.962-.725l-2-7a1.004 1.004 0 0 1 .127-.826l5.155-7.816a.994.994 0 0 1 .956-.442c3.642.445 7.705 1.926 13.173 4.804a4.763 4.763 0 0 1 2.55 4.227V65a1 1 0 0 1-1 1z"/>
            <path d="M26.634 51.844l2.427 4.248 4.776-7.242-.427-1.321c-1.97 2.344-4.331 3.847-6.776 4.315M29 59h-.032a1 1 0 0 1-.836-.504l-4-7A1 1 0 0 1 25 50c2.854 0 5.746-1.885 7.937-5.172.212-.32.595-.486.969-.437.38.053.697.319.815.684l1.167 3.618c.093.289.05.605-.117.858l-5.936 9A1 1 0 0 1 29 59"/>
            <path d="M25 18c-6.065 0-11 5.271-11 11.75V35c0 6.794 4.906 15 11 15 5.188 0 9.443-5.92 10.643-11.67A16.975 16.975 0 0 1 26 23c0-1.633.241-3.258.719-4.846A9.965 9.965 0 0 0 25 18m0 34c-7.321 0-13-9.139-13-17v-5.25C12 22.168 17.832 16 25 16c1.072 0 2.177.154 3.284.458a1.004 1.004 0 0 1 .672 1.314A14.923 14.923 0 0 0 28 23a14.98 14.98 0 0 0 9.158 13.82 1 1 0 0 1 .598 1.081C36.631 44.832 31.553 52 25 52M37.942 24.537V16.27a.654.654 0 0 0-1.308 0v8.268A2.291 2.291 0 0 0 35 26.731c0 1.034.69 1.911 1.634 2.193v.422a.654.654 0 0 0 1.308 0v-.422a2.292 2.292 0 0 0 1.635-2.193c0-1.035-.69-1.912-1.635-2.194m6.212-7.846v-.422a.654.654 0 0 0-1.309 0v.422a2.29 2.29 0 0 0 0 4.387v8.268a.654.654 0 0 0 1.31 0v-8.268a2.292 2.292 0 0 0 1.633-2.193 2.292 2.292 0 0 0-1.634-2.194m6.211 4.904V16.27a.654.654 0 0 0-1.308 0v5.326a2.29 2.29 0 0 0-1.635 2.193c0 1.035.69 1.912 1.635 2.194v3.364a.654.654 0 0 0 1.308 0v-3.364A2.292 2.292 0 0 0 52 23.788c0-1.034-.69-1.91-1.635-2.193"/>
        </g>
    </g>
</svg>
