<svg xmlns="http://www.w3.org/2000/svg" xmlns:xlink="http://www.w3.org/1999/xlink" width="46" height="72" viewBox="0 0 46 72">
    <defs>
        <linearGradient id="a" x1="50%" x2="50%" y1="99.739%" y2="0%">
            <stop offset="0%" stop-color="#FDD4B6" stop-opacity=".591"/>
            <stop offset="100%" stop-color="#FFBABA"/>
        </linearGradient>
        <path id="b" d="M.197 0h16.728v32.717H.197z"/>
        <path id="d" d="M.078.13h10.755v12.442H.078z"/>
        <path id="f" d="M.09.15h36.823v6.624H.089z"/>
    </defs>
    <g fill="none" fill-rule="evenodd">
        <path fill="url(#a)" d="M11 0h24v72H11z"/>
        <g transform="translate(14 6)">
            <mask id="c" fill="#fff">
                <use xlink:href="#b"/>
            </mask>
            <path fill="#000" d="M8.62 11.135C5.766 13.087 2.533 15.3.802 18.963c-3.009 6.389 6.156 13.358 6.547 13.652a.513.513 0 0 0 .634-.013.484.484 0 0 0 .124-.605c-.033-.062-3.323-6.282-3.2-10.745.043-1.554 2.277-3.318 4.642-5.184 2.167-1.71 4.622-3.648 6.06-5.915 3.154-4.99-.352-9.897-.388-9.946a.515.515 0 0 0-.616-.165.49.49 0 0 0-.29.554c.006.032.688 3.277-1.21 6.62-.78 1.381-2.498 2.557-4.487 3.919" mask="url(#c)"/>
        </g>
        <path fill="#000" d="M34.791 19.458a.466.466 0 0 0 .144-.625.543.543 0 0 0-.646-.22C33.788 18.79 22 23.02 22 28.13c0 3.523 1.616 5.384 2.797 6.744.463.533.863.993.994 1.386.371 1.133-.507 3.18-.877 3.873-.106.2-.054.44.127.586a.548.548 0 0 0 .642.031c.203-.131 4.953-3.258 4.101-7.025-.317-1.432-1.073-2.478-1.74-3.402-1.033-1.43-1.78-2.463-.647-4.372 1.326-2.225 7.334-6.451 7.394-6.494"/>
        <path fill="#000" d="M5.101 41.45c-.198.57-.104 1.136.27 1.636 1.252 1.671 5.687 2.591 12.487 2.591h.001c.922 0 1.895-.017 2.891-.051 10.873-.375 14.906-3.632 15.073-3.77a.48.48 0 0 0 .117-.606.52.52 0 0 0-.589-.244c-3.829 1.006-10.98 1.362-15.94 1.362-5.55 0-8.375-.384-9.067-.668.355-.468 2.545-1.305 5.258-1.819a.497.497 0 0 0 .412-.532.506.506 0 0 0-.51-.446c-1.592 0-9.569.123-10.403 2.547"/>
        <g transform="translate(35 37.935)">
            <mask id="e" fill="#fff">
                <use xlink:href="#d"/>
            </mask>
            <path fill="#000" d="M5.759.13c-2.267 0-4.416 1.06-4.506 1.104a.473.473 0 0 0-.259.545.513.513 0 0 0 .503.366c.048 0 4.835.037 5.268 2.587.384 2.2-4.529 5.765-6.454 6.952a.466.466 0 0 0-.192.591.521.521 0 0 0 .586.286c.458-.09 11.178-2.294 10.045-8.115C10.058.88 7.654.13 5.759.13" mask="url(#e)"/>
        </g>
        <path fill="#000" d="M33.991 49.094a.514.514 0 0 0-.211-.516l-2.56-1.785a.522.522 0 0 0-.43-.076c-.026.007-2.704.708-6.591 1.138-1.543.172-3.271.263-4.998.263-3.887 0-6.428-.455-6.798-.788-.049-.094-.033-.137-.024-.16.067-.187.427-.408.66-.495a.514.514 0 0 0-.301-.983c-2.569.617-3.825 1.48-3.733 2.565.162 1.923 4.636 2.91 8.419 3.171.544.037 1.132.056 1.748.056h.001c6.29 0 14.353-1.965 14.434-1.985a.516.516 0 0 0 .384-.405M14.852 52.4a.491.491 0 0 0 .209-.566.514.514 0 0 0-.502-.35c-.341.009-3.336.14-3.546 1.996-.063.555.1 1.061.486 1.506 1.075 1.24 3.977 1.977 8.872 2.254.579.033 1.167.05 1.748.05 6.222 0 10.412-1.896 10.588-1.977a.499.499 0 0 0 .292-.423.495.495 0 0 0-.244-.452l-3.205-1.904a.527.527 0 0 0-.37-.063c-.021.004-2.056.415-5.127.82a16.97 16.97 0 0 1-2.162.117c-3.068 0-6.48-.488-7.134-.807-.01-.06.003-.136.095-.202"/>
        <path fill="#000" d="M19.203 63.097c14.178-.011 21.788-2.313 23.254-3.762.52-.512.575-.997.53-1.314-.108-.78-.886-1.257-.974-1.31a.55.55 0 0 0-.665.083.43.43 0 0 0-.003.605c.09.105.141.281-.12.52-.586.5-6.497 2.016-16.339 2.472a89.135 89.135 0 0 1-4.202.097c-8.812 0-15.26-1.102-16.107-1.744.326-.428 2.607-1.112 5.033-1.499.273-.043.458-.279.416-.529-.043-.25-.295-.422-.572-.39-.068.009-.3.022-.57.037-4.002.223-8.627.72-8.868 2.603-.074.574.113 1.094.555 1.548 1.08 1.108 4.188 2.583 18.632 2.583"/>
        <g transform="translate(9 59.226)">
            <mask id="g" fill="#fff">
                <use xlink:href="#f"/>
            </mask>
            <path fill="#000" d="M36.616.196a.52.52 0 0 0-.59.113c-.02.022-2.16 2.203-8.592 3.483-2.463.481-7.085.725-13.739.725-6.667 0-13.01-.256-13.073-.258a.505.505 0 0 0-.528.429.499.499 0 0 0 .388.553c.066.015 6.714 1.533 15.804 1.533 4.36 0 8.602-.345 12.609-1.026C36.367 4.47 36.89.86 36.909.707a.496.496 0 0 0-.293-.51" mask="url(#g)"/>
        </g>
    </g>
</svg>
