<svg xmlns="http://www.w3.org/2000/svg" xmlns:xlink="http://www.w3.org/1999/xlink" width="37" height="36" viewBox="0 0 37 36">
    <defs>
        <path id="a" d="M0 0h36.056v34.93H0z"/>
    </defs>
    <g fill="none" fill-rule="evenodd" transform="translate(.535 .535)">
        <mask id="b" fill="#fff">
            <use xlink:href="#a"/>
        </mask>
        <path fill="#EFA269" d="M29.59 29.599a.626.626 0 0 1-.456-1.057l2.51-2.65-2.51-2.651a.621.621 0 0 1-.171-.449.627.627 0 0 1 .627-.608c.172 0 .339.072.457.196l2.918 3.082a.627.627 0 0 1 0 .86l-2.918 3.08a.62.62 0 0 1-.456.197zm-5.198 0a.632.632 0 0 1-.457-.195l-2.917-3.082a.626.626 0 0 1 0-.86l2.917-3.08a.628.628 0 0 1 .888-.026.627.627 0 0 1 .026.885l-2.51 2.65 2.51 2.652a.626.626 0 0 1-.457 1.056zm1.846.089a.628.628 0 0 1-.61-.77l1.505-6.34a.626.626 0 0 1 .755-.465.625.625 0 0 1 .467.754l-1.505 6.338a.631.631 0 0 1-.612.483zM13.499 1.253c-5.79 0-12.242 1.838-12.242 4.475 0 2.637 6.451 4.475 12.242 4.475 5.79 0 12.241-1.838 12.241-4.475 0-2.637-6.451-4.475-12.24-4.475zM1.257 12.949c0 2.636 6.452 4.472 12.243 4.472 5.79 0 12.24-1.836 12.24-4.472V8.197c-2.165 1.99-6.88 3.258-12.24 3.258-5.362 0-10.078-1.267-12.243-3.258v4.752zm0 7.217c0 2.637 6.452 4.474 12.243 4.474 1.578 0 3.118-.114 4.577-.34.684-3.824 3.804-6.816 7.663-7.351v-1.532c-2.165 1.99-6.88 3.257-12.24 3.257-5.362 0-10.078-1.267-12.243-3.257v4.749zm0 7.22c0 2.637 6.451 4.475 12.242 4.475 2.165 0 4.295-.223 6.181-.645a8.908 8.908 0 0 1-1.747-5.632c-1.44.205-2.93.31-4.434.31-5.362 0-10.077-1.268-12.242-3.259v4.752zm25.734-9.278c-3.934 0-7.265 2.93-7.748 6.816a7.976 7.976 0 0 0-.06.968c0 4.292 3.503 7.785 7.808 7.785s7.808-3.493 7.809-7.785c0-4.293-3.503-7.784-7.809-7.784zm0 16.822a9 9 0 0 1-6.392-2.642c-2.122.54-4.575.825-7.1.825C5.93 33.113 0 30.597 0 27.387V5.727C0 2.517 5.93 0 13.5 0c7.567 0 13.497 2.516 13.497 5.728v11.127c4.995.003 9.059 4.056 9.06 9.037 0 4.983-4.068 9.038-9.066 9.038z" mask="url(#b)"/>
    </g>
</svg>
