<svg xmlns="http://www.w3.org/2000/svg" width="42" height="32" viewBox="0 0 42 32">
    <g fill="#F38181" fill-rule="evenodd">
        <path d="M3.562 2.084c-1.104 0-2.003.91-2.003 2.03V20.68c0 1.12.899 2.031 2.003 2.031h7.218a.7.7 0 0 1 .575.303 5.8 5.8 0 0 1 .38 5.975l-.37.712h8.477l-.37-.712a5.783 5.783 0 0 1 .38-5.977.7.7 0 0 1 .574-.301h3.062l1.18-1.61-.028-.061a7.349 7.349 0 0 1-.235-.57l-.022-.062-.076-.041-2.839-.466a.707.707 0 0 1-.59-.702v-2.527c0-.35.248-.646.59-.702l2.903-.476.023-.061a7.01 7.01 0 0 1 .233-.572l.027-.06-.025-.084-1.682-2.358a.715.715 0 0 1 .072-.918l1.763-1.793a.69.69 0 0 1 .907-.075l2.388 1.745.058-.027c.204-.095.38-.17.562-.236l.06-.023.042-.077.453-2.88a.717.717 0 0 1 .312-.485l.05-.033.026-3.442c0-1.12-.898-2.031-2.002-2.031H3.562zm6.64 29.04a.706.706 0 0 1-.601-.344.725.725 0 0 1-.02-.7l.911-1.753a4.361 4.361 0 0 0-.046-4.107l-.032-.058-.082-.029h-6.77c-1.878 0-3.407-1.549-3.407-3.453V4.114C.155 2.211 1.684.662 3.562.662h24.076c1.878 0 3.406 1.549 3.406 3.452v4.074c0 .279-.162.534-.414.65l-.054.023-.47 2.816a.71.71 0 0 1-.5.573c-.44.127-.86.302-1.249.521a.687.687 0 0 1-.752-.044l-2.252-1.646-.918.935 1.624 2.277a.723.723 0 0 1 .044.763 5.72 5.72 0 0 0-.513 1.258.706.706 0 0 1-.566.515l-2.742.449v1.315l2.742.45a.705.705 0 0 1 .566.514c.112.42.285.842.513 1.258.132.24.114.54-.045.763l-1.616 2.261a.7.7 0 0 1-.567.294h-3.069l-.031.059a4.366 4.366 0 0 0-.06 4.135l.909 1.754a.724.724 0 0 1-.02.7.705.705 0 0 1-.601.342h-10.8z"/>
        <path d="M10.998 23.492a.707.707 0 0 1-.702-.71c0-.393.315-.712.702-.712h9.649c.387 0 .702.32.702.711a.707.707 0 0 1-.702.711h-9.65zM31.071 15.575c-.22 0-.437.033-.645.099a2.315 2.315 0 0 0-1.627 2.204c0 1.013.666 1.921 1.62 2.21.214.067.428.1.652.1 1.253 0 2.273-1.036 2.273-2.31 0-1.27-1.02-2.303-2.273-2.303zm0 6.035c-.362 0-.719-.054-1.06-.161-1.54-.466-2.616-1.934-2.616-3.57 0-1.633 1.078-3.1 2.622-3.567a3.53 3.53 0 0 1 1.054-.159c2.027 0 3.676 1.671 3.676 3.725 0 2.058-1.649 3.732-3.676 3.732zm-1.25 6.725a.702.702 0 0 1-.692-.6l-.464-2.938-.062-.023a7.66 7.66 0 0 1-.561-.233l-.06-.028-.082.025-2.335 1.707a.692.692 0 0 1-.907-.074l-1.762-1.794a.717.717 0 0 1-.074-.917l.359-.506a.7.7 0 0 1 .57-.297c.148 0 .29.046.409.133a.72.72 0 0 1 .214.907l-.038.073.038.095.855.87 2.253-1.645a.691.691 0 0 1 .752-.044c.386.218.806.394 1.248.522.26.075.457.299.5.57l.438 2.775h1.303l.444-2.775a.712.712 0 0 1 .498-.57c.45-.132.87-.308 1.25-.522a.697.697 0 0 1 .753.044l2.247 1.646.922-.935-1.623-2.277a.723.723 0 0 1-.044-.763c.216-.391.389-.817.515-1.265a.707.707 0 0 1 .562-.507l2.737-.45v-1.315l-2.737-.45a.708.708 0 0 1-.562-.506c-.128-.451-.3-.877-.515-1.266a.722.722 0 0 1 .044-.763l1.623-2.276-.922-.936-2.247 1.646a.698.698 0 0 1-.75.046 5.958 5.958 0 0 0-1.252-.524.71.71 0 0 1-.499-.57l-.444-2.78h-1.901a.707.707 0 0 1-.702-.71c0-.394.315-.712.702-.712h2.5c.345 0 .637.251.692.597l.47 2.947.061.022c.21.079.387.152.561.234l.06.028.082-.025 2.329-1.707a.698.698 0 0 1 .907.074l1.77 1.793a.716.716 0 0 1 .071.92l-1.72 2.412.027.06c.093.206.167.386.233.569l.022.062.075.042 2.837.464c.34.057.59.353.59.704v2.526c0 .35-.25.646-.59.702l-2.902.476-.022.063c-.076.213-.15.394-.23.57l-.027.06.024.083 1.683 2.359a.716.716 0 0 1-.072.92l-1.769 1.793a.691.691 0 0 1-.907.073L34.196 24.5l-.059.027c-.203.093-.38.168-.562.235l-.06.023-.042.076-.459 2.876a.702.702 0 0 1-.692.598h-2.5zM5.364 19.722a.707.707 0 0 1-.702-.711v-7.497c0-.392.315-.711.702-.711.387 0 .702.319.702.711v7.497a.707.707 0 0 1-.702.71M8.744 19.377a.707.707 0 0 1-.702-.711v-4.899c0-.392.315-.71.702-.71.387 0 .702.318.702.71v4.899a.707.707 0 0 1-.702.71M17.758 19.55a.707.707 0 0 1-.702-.712v-6.197c0-.393.316-.711.702-.711.387 0 .702.318.702.71v6.198a.707.707 0 0 1-.702.711M13.251 19.417a.707.707 0 0 1-.702-.71V9.26c0-.393.315-.712.702-.712.387 0 .702.32.702.712v9.445a.707.707 0 0 1-.702.711"/>
    </g>
</svg>
