<svg xmlns="http://www.w3.org/2000/svg" xmlns:xlink="http://www.w3.org/1999/xlink" width="59" height="72" viewBox="0 0 59 72">
    <defs>
        <linearGradient id="a" x1="50%" x2="50%" y1="99.739%" y2="0%">
            <stop offset="0%" stop-color="#FDD4B6" stop-opacity=".591"/>
            <stop offset="100%" stop-color="#FFBABA"/>
        </linearGradient>
        <path id="b" d="M0 .5h50.767V60H0z"/>
    </defs>
    <g fill="none" fill-rule="evenodd">
        <path fill="url(#a)" d="M17 0h24v72H17z"/>
        <path fill="#000" d="M20.822 38.566a1.056 1.056 0 0 1-1.055-1.055v-3.518a1.056 1.056 0 0 1 2.11 0v3.518c0 .582-.473 1.055-1.055 1.055M36.784 35.752l9.65 9.314v-4.728c0-.582.473-1.056 1.055-1.056h9.092v-7.06H47.49a1.056 1.056 0 0 1-1.055-1.055v-4.729l-9.65 9.314zM47.49 48.604c-.274 0-.536-.106-.733-.297L34.528 36.512c-.43-.447-.418-1.115 0-1.519l12.226-11.796c.2-.19.461-.297.734-.297a1.06 1.06 0 0 1 1.057 1.058v6.153h9.091c.582 0 1.054.474 1.054 1.056v9.171c0 .582-.472 1.055-1.054 1.055h-9.09v6.153c0 .277-.106.54-.298.737a1.046 1.046 0 0 1-.759.321z"/>
        <g transform="translate(0 5.5)">
            <mask id="c" fill="#fff">
                <use xlink:href="#b"/>
            </mask>
            <path fill="#000" d="M25.05 2.616c-.187 0-.366.042-.534.123L9.685 10.01c-.531.252-.884.8-.891 1.395l.019 38.665 15.702 7.702a1.223 1.223 0 0 0 1.758-1.098V3.838a1.256 1.256 0 0 0-.123-.534 1.233 1.233 0 0 0-1.1-.688M25.048 60a3.299 3.299 0 0 1-1.463-.34L7.494 51.778h-6.44A1.056 1.056 0 0 1 0 50.724c0-.613.473-1.086 1.053-1.086h5.63V11.38a3.68 3.68 0 0 1 2.055-3.266L23.585.84A3.355 3.355 0 0 1 25.05.5c.89 0 1.727.346 2.356.976.629.63.977 1.466.977 2.356v4.894H39.22a3.309 3.309 0 0 1 3.296 3.296v3.968a1.057 1.057 0 0 1-2.112 0v-3.969a1.196 1.196 0 0 0-1.18-1.185H28.383v38.832h12.053v-5.153a1.056 1.056 0 0 1 2.11 0v5.153h7.165c.582 0 1.056.474 1.056 1.056 0 .581-.474 1.054-1.056 1.054H28.383v4.89c0 .503-.117 1.01-.34 1.463a3.313 3.313 0 0 1-2.995 1.87" mask="url(#c)"/>
        </g>
    </g>
</svg>
