<svg xmlns="http://www.w3.org/2000/svg" width="36" height="72" viewBox="0 0 36 72">
    <defs>
        <linearGradient id="a" x1="50%" x2="50%" y1="100%" y2="0%">
            <stop offset="0%" stop-color="#F8B686" stop-opacity=".591"/>
            <stop offset="100%" stop-color="#F38181"/>
        </linearGradient>
    </defs>
    <g fill="none" fill-rule="evenodd">
        <path fill="url(#a)" d="M6 0h24v72H6z" opacity=".646"/>
        <g fill="#000">
            <path d="M1.976 64.024h31.811V7.977H1.976v56.047zM34.775 6H.988A.989.989 0 0 0 0 6.988v58.024c0 .545.443.988.988.988h33.787a.99.99 0 0 0 .989-.988V6.988A.99.99 0 0 0 34.775 6z"/>
            <path d="M17.882 51.204a3.738 3.738 0 0 1-3.734-3.734 3.738 3.738 0 0 1 3.734-3.735 3.739 3.739 0 0 1 3.735 3.735 3.738 3.738 0 0 1-3.735 3.734m0-9.445a5.718 5.718 0 0 0-5.711 5.711 5.718 5.718 0 0 0 5.71 5.711 5.718 5.718 0 0 0 5.712-5.71 5.718 5.718 0 0 0-5.711-5.712M10.46 18.097h14.843a.988.988 0 0 0 0-1.976H10.46a.989.989 0 0 0 0 1.976M10.46 30.241h14.843a.988.988 0 0 0 0-1.977H10.46a.99.99 0 0 0 0 1.977"/>
        </g>
    </g>
</svg>
