<?xml version="1.0" encoding="UTF-8"?>
<svg width="13px" height="24px" viewBox="0 0 13 24" version="1.1" xmlns="http://www.w3.org/2000/svg" xmlns:xlink="http://www.w3.org/1999/xlink">
    <!-- Generator: sketchtool 48.2 (47327) - http://www.bohemiancoding.com/sketch -->
    <title>0F3886E1-83B5-4DDF-8241-1F81F8C5B7CD</title>
    <desc>Created with sketchtool.</desc>
    <defs></defs>
    <g id="Landing-page_1440" stroke="none" stroke-width="1" fill="none" fill-rule="evenodd" transform="translate(-387.000000, -1074.000000)">
        <path d="M399.77666,1085.44652 L389.368209,1074.24045 C389.219316,1074.08015 389.04829,1074 388.853119,1074 C388.661972,1074 388.490946,1074.08015 388.34004,1074.24045 L387.22334,1075.44273 C387.076459,1075.60303 387,1075.78716 387,1075.99513 C387,1076.20309 387.076459,1076.38722 387.22334,1076.54969 L396.002012,1085.99892 L387.22334,1095.45248 C387.076459,1095.61278 387,1095.79691 387,1096.00487 C387,1096.215 387.076459,1096.39913 387.22334,1096.55944 L388.34004,1097.76171 C388.490946,1097.92201 388.661972,1098 388.853119,1098 C389.04829,1098 389.219316,1097.91985 389.368209,1097.76171 L399.77666,1086.55348 C399.925553,1086.39318 400,1086.20904 400,1085.99892 C400,1085.79096 399.925553,1085.60682 399.77666,1085.44652" id="Fill-1-Copy" fill="#F38181"></path>
    </g>
</svg>