<svg xmlns="http://www.w3.org/2000/svg" width="139" height="48" viewBox="0 0 139 48">
    <g fill="none" fill-rule="evenodd">
        <text fill="#737373" font-family="PTSans-Regular, PT Sans" font-size="14">
            <tspan x="1" y="45">Powered by Hashworks</tspan>
        </text>
        <g fill-rule="nonzero">
            <path fill="#38454E" d="M32.298 26h-7.831c-1.699 0-3.035-.484-4.008-1.453-.973-.968-1.459-2.322-1.459-4.06v-7.973c0-1.738.486-3.093 1.46-4.061C21.431 7.484 22.767 7 24.466 7h3.103c1.7 0 3.03.484 3.99 1.453.96.968 1.44 2.323 1.44 4.06v4.732c0 .373-.173.559-.517.559H22.029c-.246 0-.37.112-.37.335v2.273c0 2.16 1.035 3.241 3.104 3.241h7.535c.345 0 .517.174.517.522v1.34c0 .324-.172.485-.517.485zM22.03 15.83h7.979c.246 0 .37-.125.37-.373v-2.869c0-2.136-1.035-3.204-3.103-3.204h-2.512c-2.069 0-3.103 1.068-3.103 3.204v2.869c0 .248.123.372.37.372zM40.18 26h-1.663c-.345 0-.517-.173-.517-.522V7.521c0-.347.172-.521.517-.521h1.663c.344 0 .517.174.517.521v1.453h.147C41.46 7.658 42.716 7 44.612 7h2.069c1.674 0 2.979.484 3.915 1.453.936.968 1.404 2.323 1.404 4.06v12.965c0 .349-.173.522-.517.522H49.82c-.345 0-.517-.173-.517-.522V12.625c0-2.16-1.034-3.24-3.102-3.24h-2.069c-1.108 0-1.958.297-2.549.893-.59.597-.886 1.441-.886 2.534v12.666c0 .349-.173.522-.517.522zM57 4V.519c0-.346.178-.519.534-.519h1.89c.384 0 .576.173.576.519v3.48c0 .347-.192.52-.575.52h-1.89c-.357 0-.535-.173-.535-.52zm0 21.481V7.63c0-.345.178-.518.534-.518h1.89c.384 0 .576.173.576.518v17.852c0 .347-.192.519-.575.519h-1.85c-.384 0-.575-.172-.575-.519zM70.388 25.35h-2.069c-1.675 0-2.98-.493-3.915-1.48C63.467 22.88 63 21.5 63 19.727v-7.105c0-1.773.486-3.154 1.46-4.141C65.431 7.494 66.767 7 68.466 7h8.016c.345 0 .517.177.517.532v18.845c0 1.748-.486 3.121-1.46 4.122-.972 1-2.308 1.501-4.007 1.501h-6.797c-.37 0-.554-.177-.554-.532v-1.406c0-.355.185-.531.554-.531H71.2c2.069 0 3.103-1.09 3.103-3.268v-2.926h-.147c-.64 1.343-1.897 2.014-3.768 2.014zm3.915-5.926v-9.65c0-.229-.123-.342-.369-.342H68.8c-2.069 0-3.103 1.101-3.103 3.305v6.877c0 2.204 1.034 3.305 3.103 3.305h2.068c1.108 0 1.958-.304 2.549-.912.591-.607.886-1.468.886-2.583zM84.199 26h-1.677c-.348 0-.522-.173-.522-.522V7.521c0-.347.174-.521.522-.521h1.677c.347 0 .522.174.522.521v1.453h.149C85.565 7.658 86.882 7 88.82 7h1.379c2.186 0 3.701.844 4.546 2.533.398-.82 1.025-1.446 1.882-1.881A5.903 5.903 0 0 1 99.33 7h1.305c1.689 0 3.005.484 3.95 1.453.944.968 1.416 2.323 1.416 4.06v12.965c0 .349-.174.522-.522.522h-1.677c-.348 0-.522-.173-.522-.522V12.625c0-2.16-1.043-3.24-3.13-3.24h-1.23c-1.118 0-1.981.316-2.59.95-.609.632-.913 1.496-.913 2.588v12.555c0 .349-.174.522-.522.522h-1.677c-.348 0-.521-.173-.521-.522V12.625c0-2.16-1.044-3.24-3.13-3.24h-1.38c-1.118 0-1.975.297-2.571.893-.596.597-.894 1.441-.894 2.534v12.666c0 .349-.175.522-.522.522zM118.388 26h-1.921c-1.7 0-3.035-.484-4.008-1.453-.973-.969-1.459-2.322-1.459-4.06v-7.973c0-1.738.486-3.093 1.46-4.061.972-.969 2.308-1.453 4.007-1.453h8.016c.344 0 .517.174.517.521v17.957c0 .349-.173.522-.517.522h-1.663c-.345 0-.517-.173-.517-.522v-1.453h-.147c-.616 1.317-1.872 1.975-3.768 1.975zm3.915-5.812V9.72c0-.223-.123-.335-.369-.335h-5.171c-2.045 0-3.066 1.08-3.066 3.241v7.75c0 2.16 1.021 3.24 3.066 3.24h2.105c1.108 0 1.958-.297 2.549-.893.59-.597.886-1.44.886-2.534z"/>
            <path fill="#F38082" d="M9.721 7.716H3.012v-.009c0-.39-.33-.707-.737-.707H.738C.33 7 0 7.317 0 7.707v1.474c0 .39.33.707.738.707h1.537c.407 0 .737-.316.737-.707v-.009h6.71c.418 0 .759.327.759.729v7.198c0 .402-.34.729-.76.729H6.025v-.009c0-.39-.33-.707-.738-.707H3.75c-.407 0-.738.316-.738.707v1.474c0 .39.33.707.738.707h1.537c.408 0 .738-.317.738-.707v-.009H9.72c1.257 0 2.279-.98 2.279-2.185V9.901c0-1.205-1.022-2.185-2.279-2.185z"/>
            <path fill="#F38082" d="M11.262 24.947H9.725a.743.743 0 0 0-.737.748v.009h-6.71a.766.766 0 0 1-.759-.77v-9.868c0-.424.34-.77.76-.77h3.696v.01c0 .412.33.747.738.747H8.25a.743.743 0 0 0 .738-.748v-1.557A.743.743 0 0 0 8.25 12H6.713a.743.743 0 0 0-.738.748v.009H2.28C1.022 12.757 0 13.793 0 15.066v9.868c0 1.273 1.022 2.31 2.279 2.31h6.709v.008c0 .413.33.748.737.748h1.537a.743.743 0 0 0 .738-.748v-1.557a.743.743 0 0 0-.738-.748z"/>
        </g>
    </g>
</svg>
