<svg xmlns="http://www.w3.org/2000/svg" width="18" height="17" viewBox="0 0 18 17">
    <path fill="#FFF" fill-rule="nonzero" d="M17.963 10.42v6.562h-3.85V10.86c0-1.538-.557-2.588-1.95-2.588-1.064 0-1.697.708-1.976 1.392-.101.245-.128.585-.128.927v6.39H6.208s.052-10.368 0-11.442h3.851v1.622l-.025.037h.025v-.037c.512-.779 1.425-1.89 3.47-1.89 2.535 0 4.434 1.635 4.434 5.15zM2.18.023C.862.023 0 .877 0 2c0 1.098.837 1.978 2.128 1.978h.026c1.343 0 2.178-.88 2.178-1.978C4.307.877 3.497.023 2.18.023zM.23 16.982h3.85V5.539H.229v11.443z"/>
</svg>
