<svg xmlns="http://www.w3.org/2000/svg" width="21" height="17" viewBox="0 0 21 17">
    <path fill="#FFF" fill-rule="nonzero" d="M21 2.012a8.64 8.64 0 0 1-2.474.676A4.308 4.308 0 0 0 20.42.314a8.645 8.645 0 0 1-2.736 1.041A4.31 4.31 0 0 0 14.539 0c-2.38 0-4.308 1.921-4.308 4.292 0 .336.038.663.111.978A12.247 12.247 0 0 1 1.462.785a4.285 4.285 0 0 0 1.333 5.73 4.304 4.304 0 0 1-1.951-.537v.054A4.299 4.299 0 0 0 4.3 10.241a4.332 4.332 0 0 1-1.946.073 4.31 4.31 0 0 0 4.025 2.98 8.665 8.665 0 0 1-5.351 1.838c-.348 0-.69-.02-1.028-.06A12.228 12.228 0 0 0 6.604 17c7.925 0 12.259-6.54 12.259-12.21 0-.187-.005-.372-.013-.556A8.734 8.734 0 0 0 21 2.012z"/>
</svg>
