<svg xmlns="http://www.w3.org/2000/svg" xmlns:xlink="http://www.w3.org/1999/xlink" width="37" height="28" viewBox="0 0 37 28">
    <defs>
        <path id="a" d="M0 .466h27.414V27.5H0z"/>
        <path id="c" d="M.376.013h16.595v18.56H.376z"/>
    </defs>
    <g fill="none" fill-rule="evenodd">
        <g transform="translate(0 .035)">
            <mask id="b" fill="#fff">
                <use xlink:href="#a"/>
            </mask>
            <path fill="#FFF" d="M3.024 1.728c-.98 0-1.778.808-1.778 1.802v14.702c0 .994.798 1.802 1.778 1.802H9.43c.203 0 .393.1.51.269a5.147 5.147 0 0 1 .337 5.303l-.328.632h7.523l-.328-.632a5.133 5.133 0 0 1 .338-5.305.622.622 0 0 1 .509-.267h2.717l1.047-1.429-.024-.054a6.522 6.522 0 0 1-.209-.506l-.02-.055-.067-.036-2.52-.413a.627.627 0 0 1-.524-.624v-2.242c0-.312.22-.574.524-.624l2.577-.422.02-.054c.068-.19.134-.35.207-.508l.024-.053-.022-.074-1.493-2.093a.634.634 0 0 1 .064-.815l1.565-1.591a.613.613 0 0 1 .805-.067l2.119 1.549.051-.024c.18-.084.338-.15.499-.21l.054-.02.036-.068.403-2.556a.636.636 0 0 1 .277-.43l.045-.03.022-3.054c0-.995-.797-1.803-1.777-1.803H3.024zM8.917 27.5a.627.627 0 0 1-.534-.305.644.644 0 0 1-.017-.62l.808-1.557a3.87 3.87 0 0 0-.041-3.644l-.028-.052-.073-.026H3.024C1.357 21.296 0 19.922 0 18.232V3.53C0 1.84 1.357.466 3.024.466h21.367c1.667 0 3.023 1.374 3.023 3.064v3.615a.634.634 0 0 1-.368.576L27 7.743l-.418 2.499a.63.63 0 0 1-.443.508c-.39.113-.763.268-1.108.463a.61.61 0 0 1-.668-.04l-1.999-1.46-.815.83 1.442 2.02a.641.641 0 0 1 .039.678c-.2.364-.354.74-.456 1.116a.626.626 0 0 1-.501.457l-2.434.398v1.168l2.434.399c.24.039.438.218.501.456.1.372.253.748.456 1.116a.64.64 0 0 1-.04.678l-1.434 2.007a.621.621 0 0 1-.504.26h-2.723l-.028.052a3.875 3.875 0 0 0-.054 3.67l.807 1.557a.642.642 0 0 1-.017.62.626.626 0 0 1-.534.305H8.917z" mask="url(#b)"/>
        </g>
        <path fill="#FFF" d="M9.427 21.328a.628.628 0 0 1-.623-.63c0-.349.28-.632.623-.632h8.564c.343 0 .623.283.623.631 0 .348-.28.631-.623.631H9.427z"/>
        <g transform="translate(19.733 6.535)">
            <mask id="d" fill="#fff">
                <use xlink:href="#c"/>
            </mask>
            <path fill="#FFF" d="M7.815 7.249c-.196 0-.388.03-.573.087a2.054 2.054 0 0 0-1.444 1.957c0 .899.592 1.705 1.439 1.96.189.06.379.09.578.09 1.112 0 2.017-.92 2.017-2.05 0-1.127-.905-2.044-2.017-2.044zm0 5.356c-.322 0-.639-.048-.941-.143-1.368-.414-2.322-1.717-2.322-3.17 0-1.448.957-2.75 2.327-3.164.301-.094.616-.141.936-.141 1.798 0 3.262 1.483 3.262 3.306 0 1.826-1.464 3.312-3.262 3.312zm-1.11 5.968a.623.623 0 0 1-.614-.532l-.412-2.608-.055-.02a6.798 6.798 0 0 1-.498-.207l-.053-.025-.073.022-2.072 1.515a.614.614 0 0 1-.805-.066L.56 15.06a.636.636 0 0 1-.065-.814l.318-.45a.621.621 0 0 1 .869-.145.64.64 0 0 1 .19.805l-.034.065.034.084.759.773 1.999-1.46a.614.614 0 0 1 .668-.04c.342.194.715.35 1.107.463a.63.63 0 0 1 .444.507l.389 2.462h1.156l.394-2.463a.632.632 0 0 1 .442-.505 5.32 5.32 0 0 0 1.11-.464.618.618 0 0 1 .668.039l1.994 1.461.819-.83-1.441-2.02a.641.641 0 0 1-.04-.678c.193-.347.346-.725.457-1.123a.628.628 0 0 1 .5-.45l2.429-.398V8.712l-2.43-.399a.628.628 0 0 1-.499-.45 5.315 5.315 0 0 0-.456-1.123.64.64 0 0 1 .039-.677l1.44-2.02-.818-.83-1.994 1.46a.62.62 0 0 1-.666.041 5.287 5.287 0 0 0-1.11-.465.63.63 0 0 1-.444-.506l-.394-2.467H6.706a.628.628 0 0 1-.623-.631c0-.349.28-.632.623-.632h2.218c.307 0 .566.224.615.53l.416 2.616.055.02c.186.07.343.135.498.207l.053.025.073-.022 2.067-1.515a.62.62 0 0 1 .805.065l1.57 1.592c.217.22.244.563.064.816l-1.527 2.141.024.053c.083.183.149.343.207.505l.02.055.066.037 2.518.413c.303.05.523.312.523.624v2.242c0 .311-.22.573-.523.623l-2.576.423-.019.056a6.344 6.344 0 0 1-.204.505l-.024.053.021.074 1.494 2.094a.636.636 0 0 1-.064.816l-1.57 1.591a.614.614 0 0 1-.805.065l-2.113-1.548-.052.024c-.18.083-.338.15-.5.21l-.053.02-.037.067-.407 2.552a.623.623 0 0 1-.615.53H6.706z" mask="url(#d)"/>
        </g>
        <path fill="#FFF" d="M4.062 17.614a.628.628 0 0 1-.623-.63V10.33c0-.348.28-.631.623-.631.343 0 .623.283.623.632v6.652c0 .348-.28.631-.623.631M7.855 17.614a.628.628 0 0 1-.623-.63v-4.348c0-.348.28-.631.623-.631.343 0 .623.283.623.631v4.348c0 .347-.28.63-.623.63M15.44 17.614a.628.628 0 0 1-.623-.63v-5.501c0-.348.28-.631.623-.631.343 0 .623.283.623.631v5.5c0 .348-.28.631-.623.631M11.647 17.614a.628.628 0 0 1-.623-.63V8.6c0-.348.28-.631.623-.631.344 0 .623.283.623.631v8.383c0 .348-.28.631-.623.631"/>
    </g>
</svg>
