<svg xmlns="http://www.w3.org/2000/svg" width="32" height="31" viewBox="0 0 32 31">
    <path fill="#FFF" fill-rule="evenodd" d="M26.262 26.269a.555.555 0 0 1-.405-.938l2.227-2.351-2.228-2.354a.551.551 0 0 1 .023-.786.556.556 0 0 1 .787.022l2.59 2.736a.556.556 0 0 1 0 .763l-2.59 2.733a.55.55 0 0 1-.404.175zm-4.614 0a.561.561 0 0 1-.405-.173l-2.59-2.735a.555.555 0 0 1 0-.764l2.59-2.734a.565.565 0 0 1 .787-.023c.224.211.234.563.024.786l-2.229 2.353 2.229 2.353a.556.556 0 0 1-.406.937zm1.638.079a.557.557 0 0 1-.542-.684l1.336-5.626a.555.555 0 0 1 .67-.413.554.554 0 0 1 .415.67L23.83 25.92a.56.56 0 0 1-.544.428zM11.98 1.112c-5.139 0-10.864 1.631-10.865 3.972 0 2.34 5.726 3.97 10.865 3.97s10.864-1.63 10.864-3.97c0-2.341-5.725-3.972-10.864-3.972zM1.116 11.492c0 2.34 5.725 3.97 10.865 3.97 5.138 0 10.864-1.63 10.864-3.97V7.275c-1.922 1.766-6.107 2.892-10.864 2.892-4.758 0-8.944-1.126-10.865-2.892v4.217zm0 6.405c0 2.34 5.725 3.971 10.865 3.971 1.4 0 2.767-.101 4.063-.303.606-3.393 3.376-6.048 6.8-6.523v-1.36c-1.921 1.766-6.106 2.891-10.863 2.891-4.759 0-8.944-1.125-10.865-2.89v4.214zm0 6.409c0 2.34 5.725 3.97 10.864 3.97 1.922 0 3.813-.197 5.486-.572a7.906 7.906 0 0 1-1.55-4.998c-1.279.182-2.602.275-3.936.275-4.758 0-8.943-1.125-10.865-2.892v4.217zm22.839-8.235c-3.492 0-6.448 2.6-6.877 6.049a7.079 7.079 0 0 0-.052.859c0 3.81 3.108 6.909 6.929 6.909 3.82 0 6.93-3.1 6.93-6.91 0-3.809-3.11-6.907-6.93-6.907zm0 14.929a7.988 7.988 0 0 1-5.673-2.344c-1.883.479-4.06.732-6.302.732C5.263 29.388 0 27.155 0 24.306V5.083C0 2.233 5.263 0 11.98 0c6.717 0 11.98 2.233 11.98 5.083v9.876c4.433.002 8.04 3.6 8.04 8.02C32 27.4 28.39 31 23.955 31z"/>
</svg>
