<svg xmlns="http://www.w3.org/2000/svg" xmlns:xlink="http://www.w3.org/1999/xlink" width="32" height="36" viewBox="0 0 32 36">
    <defs>
        <path id="a" d="M0 .096h31.758V35.52H0z"/>
    </defs>
    <g fill="none" fill-rule="evenodd">
        <g transform="translate(0 .384)">
            <mask id="b" fill="#fff">
                <use xlink:href="#a"/>
            </mask>
            <path fill="#FFF" d="M14.541 4.904a2.43 2.43 0 0 0-2.42 2.433v3.523h4.837l.004-3.523a2.43 2.43 0 0 0-2.42-2.433zm-.004-1.26c2.027 0 3.676 1.657 3.676 3.693v3.523h2.282V7.337c0-3.298-2.67-5.981-5.95-5.981-3.282 0-5.952 2.683-5.952 5.98v3.524h2.27V7.337c0-2.036 1.648-3.693 3.674-3.693zm3.227 17.562c.855 0 1.676.407 2.195 1.088.158.205.287.43.382.668l.161.399 2.753-2.718v-7.738a.787.787 0 0 0-.784-.788H6.611a.787.787 0 0 0-.784.788v8.301h11.937zM5.562 35.52a.624.624 0 0 1-.62-.542.63.63 0 0 1 .118-.466l1.076-1.472a3.52 3.52 0 0 1 2.83-1.44h6.828a6.48 6.48 0 0 0 4.64-1.92l9.633-9.69a1.505 1.505 0 0 0 .344-1.578 1.483 1.483 0 0 0-.775-.84l-.046-.022a1.52 1.52 0 0 0-1.73.303l-7.779 7.674-.016.026a2.78 2.78 0 0 1-2.32 1.255H9.86a.63.63 0 0 1 0-1.26h7.885a1.54 1.54 0 0 0 1.535-1.542 1.54 1.54 0 0 0-1.535-1.543H6.135a4.315 4.315 0 0 0-2.899 1.117L1.11 25.497a.839.839 0 0 1-.12.108.628.628 0 0 1-.874-.146.633.633 0 0 1 .146-.88l2.148-1.937A5.549 5.549 0 0 1 4.373 21.5l.197-.065v-8.527c0-1.129.914-2.048 2.037-2.048h.718V7.337c0-3.993 3.232-7.241 7.205-7.241s7.205 3.248 7.205 7.24v3.52h.732c1.124 0 2.039.92 2.039 2.049v6.497l2.478-2.45a2.75 2.75 0 0 1 1.95-.806c.381 0 .75.077 1.099.229l.131.063c.296.137.561.324.792.555.517.52.803 1.212.802 1.949 0 .736-.285 1.429-.803 1.949l-9.633 9.682a7.79 7.79 0 0 1-5.5 2.3H8.976c-.737 0-1.417.346-1.84.929L6.063 35.27a.62.62 0 0 1-.5.25z" mask="url(#b)"/>
        </g>
        <path fill="#FFF" d="M14.545 18.036a.63.63 0 0 1-.003-1.26l-.001-.576.022.575a.627.627 0 0 1 .608.63.63.63 0 0 1-.624.631h-.002z"/>
    </g>
</svg>
