<svg xmlns="http://www.w3.org/2000/svg" xmlns:xlink="http://www.w3.org/1999/xlink" width="32" height="25" viewBox="0 0 32 25">
    <defs>
        <path id="a" d="M0 0h32v25H0z"/>
    </defs>
    <g fill="none" fill-rule="evenodd">
        <mask id="b" fill="#fff">
            <use xlink:href="#a"/>
        </mask>
        <path fill="#FFF" d="M16 17.237c.583 0 1.207.025 1.908.077l.783.058-.361-.686A2.618 2.618 0 0 0 16 15.298c-.986 0-1.879.532-2.33 1.388l-.361.686.783-.058c.701-.052 1.325-.077 1.908-.077zm4.393-12.95a.649.649 0 0 1 .59.368.631.631 0 0 1 .026.494l-3.157 9.3.284.182a3.9 3.9 0 0 1 1.747 2.606l.053.302.306.05c3.14.524 6.201 1.637 8.852 3.22l.447.268.19-.48c.488-1.235.793-2.498.907-3.753l.041-.47h-2.26l-.057.002a.653.653 0 0 1-.657-.614.636.636 0 0 1 .168-.467.66.66 0 0 1 .456-.213h2.345l-.036-.464c-.238-3.071-1.447-5.935-3.495-8.282l-.308-.353-1.967 1.933a.664.664 0 0 1-1.008.025.64.64 0 0 1 .056-.912l1.998-1.963-.36-.303a14.69 14.69 0 0 0-8.425-3.424l-.471-.035v2.215a.66.66 0 0 1-1.13.466.637.637 0 0 1-.186-.46V1.304l-.47.035a14.69 14.69 0 0 0-8.426 3.424l-.36.303L8.064 7.01a.632.632 0 0 1 .239.545A.636.636 0 0 1 8.08 8a.665.665 0 0 1-.928-.062L5.165 5.983l-.308.353c-2.048 2.347-3.257 5.21-3.495 8.282l-.036.464H3.58c.2.002.364.072.487.196a.634.634 0 0 1 .186.46.654.654 0 0 1-.657.637H1.32l.042.47c.112 1.222.425 2.482.93 3.743l.192.476.444-.265c2.65-1.579 5.703-2.689 8.83-3.21l.306-.05.053-.302c.32-1.843 1.99-3.232 3.883-3.232.09 0 .178.004.266.01l.339.023 3.155-9.294a.657.657 0 0 1 .63-.457h.003zM28.416 25a.664.664 0 0 1-.378-.118.643.643 0 0 1-.16-.905c.324-.457.612-.905.879-1.372l.206-.359-.357-.218C24.916 19.772 20.438 18.53 16 18.53c-4.426 0-8.894 1.239-12.583 3.488l-.358.218.208.36c.186.323.37.62.562.91l.13.195h20.808c.2.003.364.072.487.196a.634.634 0 0 1 .186.46.654.654 0 0 1-.657.637H3.58a.662.662 0 0 1-.543-.276C1.05 21.92 0 18.812 0 15.728 0 7.056 7.178 0 16 0s16 7.056 16 15.728c0 3.895-1.652 7.038-3.038 8.99a.67.67 0 0 1-.546.282z" mask="url(#b)"/>
    </g>
</svg>
